<svg width="33" height="33" viewBox="0 0 33 33" fill="none" xmlns="http://www.w3.org/2000/svg">
<path d="M3.41529 10.0443L10.0445 3.41514L8.93947 2.31015C7.11183 0.482512 4.13795 0.482512 2.31055 2.3104C1.42505 3.19565 0.9375 4.37266 0.9375 5.62486C0.9375 6.87681 1.42505 8.05406 2.31055 8.93932L3.41529 10.0443Z" fill="#2405F2"/>
<path d="M4.74121 11.3704L7.39283 8.71875L11.1924 12.5183L8.54078 15.1699L4.74121 11.3704Z" fill="#2405F2"/>
<path d="M8.71875 7.39283L11.3704 4.74121L15.1699 8.54053L12.5183 11.1922L8.71875 7.39283Z" fill="#2405F2"/>
<path d="M23.8237 29.1272C23.8237 29.1275 23.8237 29.1275 23.8235 29.1275L23.3867 29.5645L31.6516 32.8704C31.7644 32.9155 31.8823 32.9375 31.9995 32.9375C32.2437 32.9375 32.4834 32.8421 32.6626 32.6629C32.9278 32.3977 33.0093 32 32.8701 31.6516L29.5642 23.3867L23.8237 29.1272Z" fill="#2405F2"/>
<path d="M18.7051 25.3342L21.3567 22.6826L24.4866 25.8128L21.835 28.4644L18.7051 25.3342Z" fill="#2405F2"/>
<path d="M22.6826 21.3569L25.3342 18.7051L28.4644 21.8352L25.8128 24.4868L22.6826 21.3569Z" fill="#2405F2"/>
<path d="M9.05129 26.1497C8.68508 26.5157 8.68508 27.1094 9.05129 27.4754L11.482 29.9061L8.72511 32.6629C8.35915 33.0291 7.7654 33.0291 7.39943 32.6629L1.21216 26.4756C0.845947 26.1097 0.845947 25.5159 1.21216 25.15L25.15 1.21216C25.5159 0.845947 26.1097 0.845947 26.4756 1.21216L32.6629 7.39918C32.846 7.58229 32.9376 7.82228 32.9376 8.06227C32.9376 8.30202 32.846 8.54201 32.6629 8.72511L29.9061 11.482L26.5916 8.16725C26.2254 7.80104 25.6319 7.80104 25.2657 8.16725C24.8997 8.53346 24.8997 9.12697 25.2657 9.49318L28.5801 12.8076L26.4864 14.9016L24.0557 12.4707C23.6897 12.1048 23.096 12.1048 22.7298 12.4707C22.3638 12.8369 22.3638 13.4304 22.7298 13.7967L25.1605 16.2273L23.0667 18.3213L19.7522 15.0066C19.386 14.6407 18.7925 14.6407 18.4263 15.0066C18.0603 15.3728 18.0603 15.9663 18.4263 16.3326L21.7408 19.647L19.647 21.741L17.2163 19.3103C16.8501 18.9441 16.2566 18.9441 15.8904 19.3103C15.5244 19.6763 15.5244 20.2698 15.8904 20.636L18.3211 23.0667L16.2273 25.1607L12.9129 21.846C12.5467 21.48 11.9531 21.48 11.5869 21.846C11.221 22.2122 11.221 22.8057 11.5869 23.1719L14.9014 26.4864L12.8076 28.5804L10.377 26.1497C10.011 25.7835 9.41725 25.7835 9.05129 26.1497V26.1497Z" fill="#2405F2"/>
</svg>
