<svg width="36" height="36" viewBox="0 0 36 36" fill="none" xmlns="http://www.w3.org/2000/svg">
<path d="M3.64172 10.893L10.8924 3.64235L9.68379 2.43377C7.68481 0.434792 4.43213 0.434792 2.43341 2.43404C1.4649 3.40229 0.931641 4.68964 0.931641 6.05923C0.931641 7.42856 1.4649 8.71617 2.43341 9.68442L3.64172 10.893Z" fill="#2405F2"/>
<path d="M5.0918 12.3426L7.992 9.44238L12.1478 13.5982L9.24757 16.4984L5.0918 12.3426Z" fill="#2405F2"/>
<path d="M9.44238 7.992L12.3426 5.0918L16.4984 9.24731L13.5982 12.1475L9.44238 7.992Z" fill="#2405F2"/>
<path d="M25.9643 31.764C25.9643 31.7643 25.9643 31.7643 25.964 31.7643L25.4863 32.2423L34.5261 35.8581C34.6494 35.9075 34.7784 35.9315 34.9066 35.9315C35.1736 35.9315 35.4358 35.8271 35.6318 35.6311C35.9218 35.3411 36.011 34.9061 35.8588 34.5251L32.243 25.4854L25.9643 31.764Z" fill="#2405F2"/>
<path d="M20.3652 27.615L23.2654 24.7148L26.6888 28.1384L23.7886 31.0386L20.3652 27.615Z" fill="#2405F2"/>
<path d="M24.7148 23.2657L27.615 20.3652L31.0386 23.7888L28.1384 26.689L24.7148 23.2657Z" fill="#2405F2"/>
<path d="M9.80609 28.5075C9.40555 28.9078 9.40555 29.5572 9.80609 29.9575L12.4646 32.616L9.44934 35.6313C9.04907 36.0318 8.39965 36.0318 7.99937 35.6313L1.23205 28.864C0.831505 28.4637 0.831505 27.8143 1.23205 27.414L27.414 1.23205C27.8143 0.831505 28.4637 0.831505 28.864 1.23205L35.6313 7.99911C35.8316 8.19938 35.9317 8.46187 35.9317 8.72436C35.9317 8.98658 35.8316 9.24907 35.6313 9.44934L32.616 12.4646L28.9908 8.83918C28.5903 8.43864 27.9411 8.43864 27.5406 8.83918C27.1403 9.23973 27.1403 9.88887 27.5406 10.2894L31.1658 13.9146L28.8757 16.2049L26.2172 13.5461C25.8169 13.1458 25.1675 13.1458 24.7669 13.5461C24.3667 13.9467 24.3667 14.5958 24.7669 14.9963L27.4255 17.6549L25.1354 19.9452L21.5103 16.3197C21.1097 15.9195 20.4606 15.9195 20.06 16.3197C19.6597 16.7203 19.6597 17.3694 20.06 17.77L23.6852 21.3952L21.3952 23.6855L18.7366 21.0269C18.3361 20.6264 17.6869 20.6264 17.2864 21.0269C16.8861 21.4272 16.8861 22.0764 17.2864 22.4769L19.9449 25.1354L17.6549 27.4258L14.0297 23.8003C13.6292 23.4 12.98 23.4 12.5795 23.8003C12.1792 24.2008 12.1792 24.85 12.5795 25.2505L16.2047 28.8757L13.9146 31.166L11.2561 28.5075C10.8558 28.107 10.2064 28.107 9.80609 28.5075Z" fill="#2405F2"/>
</svg>
