<svg width="32" height="26" viewBox="0 0 32 26" fill="none" xmlns="http://www.w3.org/2000/svg">
<path d="M16 10.334C19.003 10.334 21.4374 8.21433 21.4374 5.59961C21.4374 2.98489 19.003 0.865234 16 0.865234C12.9969 0.865234 10.5625 2.98489 10.5625 5.59961C10.5625 8.21433 12.9969 10.334 16 10.334Z" fill="#2405F2"/>
<path d="M27 10.3335C28.8984 10.3335 30.4374 8.99352 30.4374 7.34058C30.4374 5.68763 28.8984 4.34766 27 4.34766C25.1015 4.34766 23.5625 5.68763 23.5625 7.34058C23.5625 8.99352 25.1015 10.3335 27 10.3335Z" fill="#2405F2"/>
<path d="M4.99997 10.3335C6.89843 10.3335 8.43744 8.99352 8.43744 7.34058C8.43744 5.68763 6.89843 4.34766 4.99997 4.34766C3.10151 4.34766 1.5625 5.68763 1.5625 7.34058C1.5625 8.99352 3.10151 10.3335 4.99997 10.3335Z" fill="#2405F2"/>
<path d="M8.3868 13.0218C7.03368 12.0565 5.80826 12.1843 4.24371 12.1843C1.90373 12.1843 0 13.832 0 15.8568V21.7994C0 22.6788 0.824367 23.3938 1.83811 23.3938C6.21469 23.3938 5.68745 23.4627 5.68745 23.2295C5.68745 19.0185 5.11458 15.9304 8.3868 13.0218V13.0218Z" fill="#2405F2"/>
<path d="M17.4882 12.2058C14.7555 12.0074 12.3802 12.2081 10.3314 13.6805C6.90288 16.0716 7.56268 19.2911 7.56268 23.2296C7.56268 24.2717 8.53642 25.1353 9.75141 25.1353C22.9439 25.1353 23.469 25.5058 24.2513 23.9975C24.5078 23.4874 24.4375 23.6495 24.4375 18.7696C24.4375 14.8937 20.583 12.2058 17.4882 12.2058V12.2058Z" fill="#2405F2"/>
<path d="M27.7564 12.1842C26.1833 12.1842 24.9646 12.0577 23.6133 13.0217C26.8611 15.9089 26.3126 18.7865 26.3126 23.2301C26.3126 23.4648 25.8749 23.3944 30.0963 23.3944C31.1463 23.3944 32.0001 22.6538 32.0001 21.7433V15.8569C32.0001 13.832 30.0963 12.1842 27.7564 12.1842Z" fill="#2405F2"/>
</svg>
